<?xml version="1.0" encoding="UTF-8" standalone="no"?>
<!-- Created with Inkscape (http://www.inkscape.org/) -->

<svg
   width="143"
   height="35"
   viewBox="0 0 37.83544 9.2604166"
   version="1.1"
   id="svg5"
   xml:space="preserve"
   xmlns:inkscape="http://www.inkscape.org/namespaces/inkscape"
   xmlns:sodipodi="http://sodipodi.sourceforge.net/DTD/sodipodi-0.dtd"
   xmlns="http://www.w3.org/2000/svg"
   xmlns:svg="http://www.w3.org/2000/svg"><sodipodi:namedview
     id="namedview7"
     pagecolor="#ffffff"
     bordercolor="#000000"
     borderopacity="0.25"
     inkscape:showpageshadow="2"
     inkscape:pageopacity="0.0"
     inkscape:pagecheckerboard="0"
     inkscape:deskcolor="#d1d1d1"
     inkscape:document-units="mm"
     showgrid="false" /><defs
     id="defs2" /><g
     inkscape:label="Layer 1"
     inkscape:groupmode="layer"
     id="layer1"><g
       id="g581"><g
         id="g31"
         transform="matrix(0.26458333,0,0,0.26458333,4.2832784,-2.0190627)"><path
           fill="#"
           d="m 15.868164,23.475586 q -0.03418,-0.458008 0.05469,-0.84082 0.08887,-0.382813 0.355468,-0.622071 0.266602,-0.239258 0.854492,-0.239258 0.136719,0 0.334961,0.03418 0.198243,0.03418 0.389649,0.08887 0.191406,0.05469 0.321289,0.164063 0.129883,0.109375 0.129883,0.300781 v 1.544922 q 0.533203,-0.615234 1.162109,-0.881836 0.628906,-0.266602 1.435547,-0.266602 0.615234,0 1.216797,0.280274 0.601562,0.280273 1.134765,0.745117 0.533204,0.464844 0.922852,1.025391 0.389648,0.560547 0.567383,1.121093 0.109375,-0.505859 0.246094,-1.237304 0.136718,-0.731446 0.40332,-1.401367 0.266601,-0.669922 0.704101,-1.148438 0.4375,-0.478516 1.16211,-0.478516 0.779297,0 1.3125,0.560547 0.533203,0.560547 0.868164,1.456055 0.334961,0.895508 0.505859,2.00293 0.170899,1.107422 0.25293,2.1875 0.08203,1.080078 0.08203,2.016601 v 1.469727 q 0,0.164062 -0.123047,0.266601 -0.123047,0.102539 -0.307617,0.157227 -0.18457,0.05469 -0.382812,0.06836 -0.198243,0.01367 -0.307618,0.01367 -0.423828,0 -0.77246,-0.129883 -0.348633,-0.129882 -0.348633,-0.663086 v -1.230468 q 0,0 -0.02734,-1.592774 -0.02734,-1.592773 -0.0957,-1.708984 -0.06836,-0.116211 -0.177735,-1.551758 -0.109375,-1.435547 -0.280273,-1.121094 -0.170898,0.314453 -0.416992,-0.4375 -0.341797,0 -0.492188,0.382813 -0.15039,0.382812 -0.252929,0.970703 -0.102539,0.587891 -0.157227,1.244141 -0.05469,0.65625 -0.150391,1.24414 -0.0957,0.587891 -0.307617,0.963867 -0.211914,0.375977 -0.581054,0.375977 -0.396485,0 -0.697266,-0.375977 -0.300781,-0.375976 -0.594727,-0.936523 -0.293945,-0.560547 -0.58789,-1.203125 -0.293946,-0.642578 -0.649414,-1.203125 -0.355469,-0.574219 -0.765625,-0.929688 -0.369141,-0.341796 -0.833985,-0.328125 h -0.06836 q -0.615234,0.02734 -0.963867,0.444336 -0.348633,0.416993 -0.533203,1.018555 -0.184571,0.601563 -0.225586,1.291992 -0.04102,0.69043 -0.04102,1.209961 0,0.492188 0.08203,1.148438 0.05469,0.4375 0.05469,0.833984 0,0.205078 -0.01367,0.396484 -0.04102,0.574219 -0.307617,0.963868 -0.266602,0.389648 -0.991211,0.389648 -0.273438,0 -0.683594,-0.05469 -0.410156,-0.05469 -0.546875,-0.369141 -0.314453,-0.560547 -0.478516,-1.415039 -0.164062,-0.854492 -0.246093,-1.763672 -0.08203,-0.90918 -0.0957,-1.804687 -0.01367,-0.895508 -0.01367,-1.538086 0,-0.451172 -0.03418,-0.90918 z m 17.242559,3.09668 q 0,-1.257813 0.293945,-2.467774 0.293945,-1.209961 0.499023,-2.413086 0.05469,-0.314453 0.430664,-0.389648 0.375977,-0.0752 0.635743,-0.0752 0.451172,0 0.724609,0.136719 0.109375,0.05469 0.205078,0.123047 0.0957,0.06836 0.0957,0.177734 0,1.175782 -0.280273,2.296875 -0.280274,1.121094 -0.280274,2.378907 0,0.423828 0.06152,0.799804 0.06152,0.375977 0.116211,0.745118 l 0.08203,0.396484 q 0,0.109375 0.01367,0.191406 0.01367,0.08203 0.04102,0.191406 0,0.246094 -0.348633,0.334961 -0.348633,0.08887 -0.608399,0.08887 -0.396484,0 -0.731445,-0.157227 -0.334961,-0.157227 -0.526367,-0.540039 l -0.191406,-0.396484 q -0.164063,-0.314454 -0.164063,-0.704102 0,-0.389648 -0.06836,-0.717773 z m 0.875,-8.230469 v -0.259766 q 0,-0.642578 0.321289,-1.148437 0.321289,-0.50586 0.963867,-0.50586 0.08203,0 0.157226,0.01367 0.0752,0.01367 0.157227,0.01367 0.164063,0.02734 0.430664,0.129883 0.266602,0.102539 0.266602,0.321289 v 0.02734 q -0.05469,0.109375 -0.06836,0.225586 -0.01367,0.116211 -0.06836,0.198242 l 0.02734,-0.02734 q -0.164063,0.423828 -0.266602,0.683594 -0.102539,0.259765 -0.225586,0.416992 -0.123047,0.157227 -0.307617,0.225586 -0.18457,0.06836 -0.526367,0.06836 -0.05469,0 -0.191406,-0.01367 -0.136719,-0.01367 -0.293946,-0.05469 -0.157226,-0.04102 -0.266601,-0.109375 -0.109375,-0.06836 -0.109375,-0.205078 z m 5.095097,8.285156 q 0,-0.984375 0.25293,-1.975586 0.25293,-0.991211 0.786133,-1.777344 0.533203,-0.786132 1.360351,-1.27832 0.827149,-0.492187 1.948243,-0.492187 0.478515,0 1.052734,0.116211 0.574219,0.11621 1.05957,0.36914 0.485352,0.25293 0.820313,0.65625 0.334961,0.40332 0.334961,0.991211 0,0.369141 -0.191407,0.492188 -0.191406,0.123046 -0.505859,0.123046 l -0.0957,-0.136718 q 0,0 -0.266602,-0.348633 -0.266601,-0.348633 -0.362304,-0.451172 -0.0957,-0.102539 -0.369141,-0.40332 -0.560547,-0.560547 -1.052734,-0.601563 H 43.74293 q -0.410157,0 -0.765625,0.246094 -0.396485,0.300781 -0.704102,0.847656 -0.307617,0.546875 -0.512695,1.16211 -0.205078,0.615234 -0.321289,1.24414 -0.116211,0.628906 -0.116211,1.039063 0,0.560547 0.129883,1.27832 0.129882,0.717773 0.4375,1.360352 0.307617,0.642578 0.779297,1.080078 0.471679,0.4375 1.20996,0.4375 0.669922,0 1.216797,-0.328125 0.546875,-0.328125 1.045899,-0.731446 0.499023,-0.40332 0.977539,-0.724609 Q 47.598398,28.5 48.104258,28.5 q 0.21875,0 0.444336,0.05469 0.225586,0.05469 0.225586,0.28711 v 0.08203 q -0.246094,0.642578 -0.833985,1.134766 -0.58789,0.492187 -1.319336,0.854492 -0.731445,0.362305 -1.517578,0.540039 -0.786133,0.177734 -1.401367,0.177734 -1.148437,0 -2.016601,-0.375976 -0.868165,-0.375977 -1.442383,-1.032227 -0.574219,-0.65625 -0.868164,-1.579101 -0.293946,-0.922852 -0.293946,-2.016602 z m 11.931035,-3.554687 q 0,-0.560547 0.198243,-0.94336 0.198242,-0.382812 0.84082,-0.382812 0.246094,0 0.615234,0.0752 0.369141,0.0752 0.423828,0.375977 0.136719,0.80664 0.150391,1.75 0.01367,0.943359 0.0957,1.777343 0.314453,-0.615234 0.806641,-1.326172 0.492187,-0.710937 1.121094,-1.3125 0.628906,-0.601562 1.367187,-0.998046 0.738281,-0.396485 1.503906,-0.396485 0.05469,0 0.205078,0.04102 0.150391,0.04102 0.280274,0.116211 0.129883,0.0752 0.157226,0.170898 0.02734,0.0957 -0.15039,0.177735 -0.05469,0.164062 -0.232422,0.198242 -0.177734,0.03418 -0.314453,0.03418 -0.08203,0 -0.259766,-0.06836 -1.011719,0.533203 -1.722656,1.449219 -0.710938,0.916015 -1.162109,2.030273 -0.451172,1.114258 -0.65625,2.351563 -0.205079,1.237304 -0.205079,2.413086 0,0.58789 -0.266601,0.710937 -0.266602,0.123047 -0.854492,0.123047 -0.314453,0 -0.663086,-0.06836 -0.348633,-0.06836 -0.485352,-0.4375 -0.246094,-0.779297 -0.40332,-1.791016 -0.157227,-1.011719 -0.239258,-2.084961 -0.08203,-1.073242 -0.116211,-2.112305 -0.03418,-1.039062 -0.03418,-1.873046 z m 9.442754,4.08789 q 0,-0.779297 0.198243,-1.606445 0.198242,-0.827149 0.628906,-1.490234 0.430664,-0.663086 1.086914,-1.080079 0.65625,-0.416992 1.585937,-0.416992 0.697266,0 1.469727,0.239258 0.772461,0.239258 1.415039,0.683594 0.642578,0.444336 1.045898,1.086914 0.403321,0.642578 0.403321,1.435547 0,0.957031 -0.348633,1.818359 -0.348633,0.861328 -0.977539,1.538086 -0.628906,0.676758 -1.469727,1.066406 -0.84082,0.389649 -1.825195,0.389649 -0.806641,0 -1.408203,-0.293946 -0.601563,-0.293945 -1.004883,-0.786132 -0.40332,-0.492188 -0.601562,-1.16211 -0.198243,-0.669922 -0.198243,-1.421875 z m 2.009766,-0.02734 q 0,0.246094 0.0752,0.72461 0.0752,0.478515 0.225586,0.936523 0.150391,0.458008 0.389649,0.792969 0.239257,0.334961 0.581054,0.307617 0.72461,-0.08203 1.196289,-0.471679 0.47168,-0.389649 0.765625,-0.950196 0.293946,-0.560547 0.410157,-1.216797 0.116211,-0.65625 0.116211,-1.24414 0,-0.751953 -0.293946,-1.257813 -0.293945,-0.505859 -0.963867,-0.820312 0,0.02734 0.02734,0.02734 0.02734,0 0.02734,-0.02734 l -0.341797,-0.08203 q -0.136719,-0.05469 -0.334961,-0.123046 -0.198242,-0.06836 -0.389649,-0.300782 -0.533203,0.191407 -0.827148,0.492188 -0.293945,0.300781 -0.444336,0.731445 -0.150391,0.430664 -0.18457,1.032227 -0.03418,0.601562 -0.03418,1.449218 z m 8.383184,-14.430664 q -0.03418,-0.416992 0.05469,-0.724609 0.08887,-0.307617 0.355469,-0.505859 0.266601,-0.198242 0.854492,-0.198242 h 2.201172 q 0.451172,0 1.182617,0.04785 0.731445,0.04785 1.572266,0.143555 0.84082,0.0957 1.674804,0.293945 0.833985,0.198242 1.524414,0.492188 0.69043,0.293945 1.121094,0.724609 0.430664,0.430664 0.430664,1.018555 0,0.833984 -0.485351,1.565429 -0.485352,0.731446 -1.216797,1.319336 -0.731445,0.587891 -1.544922,1.045899 -0.813477,0.458007 -1.456055,0.827148 2.542969,0.560547 3.978516,2.324219 1.435547,1.763672 1.435547,4.402344 0,1.394531 -0.533203,2.754882 -0.533203,1.360352 -1.456055,2.454102 -0.922852,1.09375 -2.1875,1.763672 -1.264648,0.669922 -2.713867,0.669922 -0.191406,0 -0.430664,-0.04102 -0.239258,-0.04102 -0.4375,-0.129883 -0.198242,-0.08887 -0.341797,-0.252929 -0.143555,-0.164063 -0.143555,-0.423829 0,-1.203125 1.298828,-1.203125 0.21875,0 0.512696,0.06152 0.293945,0.06152 0.458007,0.25293 0.751954,-0.314454 1.374024,-0.998047 0.62207,-0.683594 1.052734,-1.524414 0.430664,-0.840821 0.669922,-1.763672 0.239258,-0.922852 0.239258,-1.674805 0,-0.902344 -0.266602,-1.838867 -0.266601,-0.936524 -0.772461,-1.736328 -0.505859,-0.799805 -1.24414,-1.34668 -0.738281,-0.546875 -1.695313,-0.683594 -0.246093,-0.02734 -0.540039,-0.04102 L 74.785059,19.75 q 0,0 -0.574219,-0.08203 -0.574219,-0.08203 -0.485352,-0.21875 0.109375,2.269531 0.280274,4.52539 0.170898,2.25586 0.458008,4.525391 0.109375,0.109375 0.15039,0.321289 0.04102,0.211914 0.06836,0.451172 0.02734,0.239258 0.02734,0.458008 v 0.36914 q 0,0.246094 -0.164062,0.403321 -0.164063,0.157226 -0.389649,0.252929 -0.225586,0.0957 -0.478515,0.123047 -0.25293,0.02734 -0.444336,0.02734 -0.615235,0 -0.94336,-0.164063 -0.328125,-0.164062 -0.464843,-0.478515 -0.136719,-0.314453 -0.177735,-0.717774 -0.04102,-0.40332 -0.06836,-0.881836 -0.369141,-3.814453 -0.533203,-7.546875 -0.164063,-3.732421 -0.164063,-7.546874 0,-0.451172 -0.03418,-0.868165 z m 2.522461,-0.581054 q 0,1.68164 0.109375,3.370117 0.109375,1.688476 0.191406,3.370117 0.615234,-0.369141 1.613281,-0.868164 0.998047,-0.499023 1.93457,-1.100586 0.936524,-0.601562 1.606446,-1.326172 0.669922,-0.724609 0.669922,-1.572265 0,-0.669922 -0.792969,-1.018555 -0.792969,-0.348633 -1.845703,-0.519531 -1.052735,-0.170899 -2.057618,-0.211914 -1.004882,-0.04102 -1.42871,-0.123047 z M 85.314727,31.75391 q 0,-0.396484 0.03418,-0.833984 0.03418,-0.4375 0.06152,-0.820313 l 0.08203,-2.050781 q 0.136719,-2.460937 0.334961,-4.839844 0.198242,-2.378906 0.334961,-4.8125 0.08203,-1.339843 0.123047,-2.631836 0.04102,-1.291992 0.123047,-2.631835 -0.05469,-0.109375 -0.05469,-0.150391 0,-0.191406 0.143555,-0.300781 0.143554,-0.109375 0.334961,-0.184571 0.191406,-0.0752 0.40332,-0.102539 0.211914,-0.02734 0.321289,-0.02734 h 0.314453 q 0.423828,0.05469 0.615235,0.266601 0.191406,0.211914 0.246093,0.505859 0.05469,0.293946 0.02734,0.628907 -0.02734,0.334961 -0.02734,0.62207 0,1.982422 -0.0957,4.040039 -0.0957,2.057617 -0.21875,4.128906 -0.123047,2.071289 -0.225586,4.142578 -0.102539,2.071289 -0.102539,4.094727 v 0.957031 q 0,0.642578 -0.362305,0.847656 -0.362304,0.205079 -1.004882,0.205079 -0.560547,0 -0.984375,-0.246094 -0.423828,-0.246094 -0.423828,-0.806641 z m 5.997441,-4.59375 q 0,-0.779297 0.198242,-1.606445 0.198242,-0.827149 0.628906,-1.490234 0.430664,-0.663086 1.086914,-1.080079 0.65625,-0.416992 1.585938,-0.416992 0.697266,0 1.469727,0.239258 0.77246,0.239258 1.415039,0.683594 0.642578,0.444336 1.045898,1.086914 0.40332,0.642578 0.40332,1.435547 0,0.957031 -0.348632,1.818359 -0.348633,0.861328 -0.97754,1.538086 -0.628906,0.676758 -1.469726,1.066406 -0.84082,0.389649 -1.825195,0.389649 -0.806641,0 -1.408204,-0.293946 -0.601562,-0.293945 -1.004882,-0.786132 -0.403321,-0.492188 -0.601563,-1.16211 -0.198242,-0.669922 -0.198242,-1.421875 z m 2.009766,-0.02734 q 0,0.246094 0.0752,0.72461 0.07519,0.478515 0.225586,0.936523 0.15039,0.458008 0.389648,0.792969 0.239258,0.334961 0.581055,0.307617 0.724609,-0.08203 1.196289,-0.471679 0.47168,-0.389649 0.765625,-0.950196 0.293945,-0.560547 0.410156,-1.216797 0.116211,-0.65625 0.116211,-1.24414 0,-0.751953 -0.293945,-1.257813 -0.293945,-0.505859 -0.963867,-0.820312 0,0.02734 0.02734,0.02734 0.02734,0 0.02734,-0.02734 l -0.341797,-0.08203 q -0.136718,-0.05469 -0.334961,-0.123046 -0.198242,-0.06836 -0.389648,-0.300782 -0.533203,0.191407 -0.827148,0.492188 -0.293946,0.300781 -0.444336,0.731445 -0.150391,0.430664 -0.184571,1.032227 -0.03418,0.601562 -0.03418,1.449218 z m 8.349006,-0.710937 q 0,-0.751953 0.14355,-1.606445 0.14356,-0.854493 0.49219,-1.56543 0.34863,-0.710938 0.96387,-1.175781 0.61523,-0.464844 1.57226,-0.464844 0.64258,0 1.24414,0.211914 0.60157,0.211914 1.13477,0.581055 0.16406,-0.273438 0.51953,-0.334961 0.35547,-0.06152 0.62891,-0.06152 0.10937,0 0.30761,0.01367 0.19825,0.01367 0.38965,0.08203 0.19141,0.06836 0.33496,0.164063 0.14356,0.0957 0.1709,0.273437 0.10938,0.957032 0.15039,1.907227 0.041,0.950195 0.12305,1.893555 0.13672,1.763672 0.42383,3.486328 0.28711,1.722656 0.28711,3.486328 0,0.833984 -0.0752,1.804687 -0.0752,0.970704 -0.39648,1.797852 -0.32129,0.827148 -0.93653,1.374023 -0.61523,0.546875 -1.70898,0.546875 -0.98438,0 -1.51074,-0.348632 -0.52637,-0.348633 -0.9502,-1.168946 0.0273,-0.273437 0.34863,-0.362304 0.32129,-0.08887 0.55371,-0.08887 0.21875,0 0.44434,0.04102 0.22559,0.04102 0.36231,0.136719 l 0.34179,0.21875 q 0.50586,-1.039063 0.61524,-2.269531 0.10937,-1.230469 0.10937,-2.378907 0,-0.957031 -0.0957,-1.893554 -0.0957,-0.936524 -0.19141,-1.879883 -0.95703,1.736328 -2.91211,1.736328 -0.90234,0 -1.46972,-0.382813 -0.56739,-0.382812 -0.875,-0.970703 -0.30762,-0.58789 -0.42383,-1.326172 -0.11621,-0.738281 -0.11621,-1.476562 z m 1.68164,0.123047 q 0,0.341797 0.0273,0.881836 0.0273,0.540039 0.14356,1.05957 0.11621,0.519531 0.33496,0.895508 0.21875,0.375976 0.61523,0.375976 0.75195,0 1.18945,-0.58789 0.4375,-0.587891 0.69043,-1.401367 0.25293,-0.813477 0.40332,-1.681641 0.1504,-0.868164 0.38282,-1.428711 -0.0273,-0.191406 -0.0273,-0.375976 V 23.90625 q -0.31445,-0.587891 -0.91601,-1.018555 -0.60156,-0.430664 -1.24414,-0.581054 -0.082,-0.01367 -0.15039,-0.01367 -0.38282,0 -0.62891,0.451172 -0.31445,0.546875 -0.49219,1.305664 -0.17773,0.758789 -0.25293,1.49707 -0.0752,0.738281 -0.0752,0.998047 z m 10.0033,-3.171875 q 0,-0.560547 0.32812,-0.963867 0.32813,-0.403321 0.79981,-0.65625 0.47168,-0.25293 1.03223,-0.375977 0.56054,-0.123047 1.03906,-0.123047 0.36914,0 0.98437,0.109375 0.61524,0.109375 1.20313,0.328125 0.58789,0.21875 1.01855,0.574219 0.43067,0.355469 0.43067,0.833984 0,0.21875 -0.16407,0.389649 -0.16406,0.170898 -0.34179,0.170898 -0.36914,0 -0.66992,-0.239258 -0.30079,-0.239257 -0.62208,-0.505859 -0.32128,-0.266602 -0.7041,-0.505859 -0.38281,-0.239258 -0.86132,-0.239258 -0.47852,0 -0.86817,0.307617 -0.38965,0.307617 -0.38965,0.813477 0,0.833984 0.58789,1.633789 0.58789,0.799804 1.292,1.68164 0.7041,0.881836 1.29199,1.852539 0.58789,0.970703 0.58789,2.146485 0,0.505859 -0.21192,0.854492 -0.21191,0.348633 -0.56054,0.567383 -0.34864,0.21875 -0.78614,0.334961 -0.4375,0.116211 -0.84765,0.116211 -0.45117,0 -1.05274,-0.211914 -0.60156,-0.211915 -1.13476,-0.560547 -0.5332,-0.348633 -0.89551,-0.813477 -0.3623,-0.464844 -0.3623,-0.970703 0,-0.246094 0.34863,-0.314453 0.34863,-0.06836 0.51269,-0.06836 0.082,0 0.25293,0.05469 0.1709,0.05469 0.33496,0.123047 0.16407,0.06836 0.29395,0.15039 0.12988,0.08203 0.10254,0.177735 0.13672,0.164062 0.41699,0.485351 0.28027,0.321289 0.56055,0.519532 0.28027,0.198242 0.49219,0.143554 0.21191,-0.05469 0.21191,-0.615234 0,-1.066406 -0.57422,-1.961914 -0.57422,-0.895508 -1.25098,-1.75 -0.67675,-0.854492 -1.25097,-1.695313 -0.57422,-0.84082 -0.57422,-1.797851 z"
           id="path19" /><path
           fill="#"
           d=""
           id="path21" /></g><g
         id="g446"
         transform="matrix(0.01375762,0,0,0.01356681,0.89511843,0.94412772)">

<path
   class="st0"
   d="m 450.8,368.4 c -2.1,3.8 -6.1,5.8 -10.1,5.8 -2,0 -4,-0.5 -5.8,-1.6 L 267.7,276 v 193.1 c 0,6.4 -5.2,11.7 -11.7,11.7 -6.4,0 -11.7,-5.2 -11.7,-11.7 V 276.2 L 77.1,372.7 c -1.8,1 -3.8,1.6 -5.8,1.6 -4,0 -8,-2.1 -10.1,-5.8 -3.2,-5.6 -1.3,-12.7 4.3,-15.9 L 232.7,256 65.5,159.4 c -5.6,-3.2 -7.5,-10.3 -4.3,-15.9 3.2,-5.6 10.4,-7.5 15.9,-4.3 l 167.2,96.6 V 42.7 c 0,-6.4 5.2,-11.7 11.7,-11.7 6.4,0 11.7,5.2 11.7,11.7 v 193.1 l 167.2,-96.6 c 5.6,-3.2 12.7,-1.3 15.9,4.3 3.2,5.6 1.3,12.7 -4.3,15.9 L 279.2,256 446.5,352.6 c 5.6,3.1 7.5,10.3 4.3,15.8 z"
   id="path324" />

<g
   id="g366">

<g
   id="g328">

<path
   class="st1"
   d="m 380.8,256 c 0,68.9 -55.9,124.8 -124.8,124.8 -68.9,0 -124.8,-55.9 -124.8,-124.8 0,-68.9 55.9,-124.8 124.8,-124.8 68.9,0 124.8,55.9 124.8,124.8 z"
   id="path326" />

</g>

<g
   id="g332">

<path
   class="st0"
   d="m 380.8,256 c 0,68.9 -55.8,124.8 -124.8,124.8 -43.4,0 -81.6,-22.2 -103.9,-55.8 19.8,13.2 43.4,20.8 69,20.8 68.9,0 124.8,-55.8 124.8,-124.7 0,-25.5 -7.7,-49.3 -20.8,-69.1 33.5,22.4 55.7,60.6 55.7,104 z"
   id="path330" />

</g>

<g
   id="g364">

<g
   id="g346">

<g
   id="g336">

<path
   class="st2"
   d="m 334.7,316.8 v 36 c -21.5,17.5 -48.9,28 -78.8,28 -29.8,0 -57.2,-10.5 -78.7,-28 v -36 c 0,-27.8 22.5,-50.4 50.3,-50.4 h 56.8 c 27.9,0.1 50.4,22.6 50.4,50.4 z"
   id="path334" />

</g>

<g
   id="g340">

<path
   class="st3"
   d="m 334.7,316.8 v 19.4 c 0,-27.8 -22.5,-50.3 -50.3,-50.3 h -56.8 c -27.8,0 -50.3,22.6 -50.3,50.3 v -19.4 c 0,-27.8 22.5,-50.4 50.3,-50.4 h 56.8 c 27.8,0.1 50.3,22.6 50.3,50.4 z"
   id="path338" />

</g>

<g
   id="g344">

<path
   class="st4"
   d="M 301.2,329.9"
   id="path342" />

</g>

</g>

<g
   id="g350">

<path
   class="st5"
   d="m 291.6,207.7 v 34.5 c 0,18.2 -14.8,33 -33,33 -18.2,0 -33,-14.8 -33,-33 v -34.5 z"
   id="path348" />

</g>

<g
   id="g354">

<rect
   class="st6"
   height="13.3"
   width="66"
   x="225.60001"
   y="207.7"
   id="rect352" />

</g>

<g
   id="g358">

<path
   class="st7"
   d="m 314.7,171.1 -23.1,36.6 h -66 v -21.1 c 0,-8.5 7,-15.5 15.5,-15.5 z"
   id="path356" />

</g>

<g
   id="g362">

<path
   class="st8"
   d="m 314.7,171.1 -9.5,15.1 h -64.1 c -8.5,0 -15.5,7 -15.5,15.5 v -15.1 c 0,-8.5 7,-15.5 15.5,-15.5 z"
   id="path360" />

</g>

</g>

</g>

<g
   id="g404">

<g
   id="g378">

<g
   id="g370">

<path
   class="st9"
   d="m 294.8,42.7 c 0,21.4 -17.4,38.8 -38.8,38.8 -21.5,0 -38.8,-17.4 -38.8,-38.8 0,-21.5 17.4,-38.8 38.8,-38.8 21.4,0 38.8,17.4 38.8,38.8 z"
   id="path368" />

</g>

<g
   id="g376">

<g
   id="g374">

<path
   class="st9"
   d="m 294.8,469.3 c 0,21.4 -17.4,38.8 -38.8,38.8 -21.5,0 -38.8,-17.4 -38.8,-38.8 0,-21.5 17.4,-38.8 38.8,-38.8 21.4,-0.1 38.8,17.3 38.8,38.8 z"
   id="path372" />

</g>

</g>

</g>

<g
   id="g390">

<g
   id="g382">

<path
   class="st10"
   d="m 90.7,115.7 c 18.6,10.7 24.9,34.5 14.2,53.1 C 94.2,187.4 70.4,193.7 51.8,183 33.2,172.3 26.9,148.5 37.6,129.9 48.4,111.4 72.1,105 90.7,115.7 Z"
   id="path380" />

</g>

<g
   id="g388">

<g
   id="g386">

<path
   class="st10"
   d="m 460.1,329 c 18.6,10.7 24.9,34.5 14.2,53.1 -10.7,18.6 -34.5,24.9 -53.1,14.2 -18.6,-10.7 -24.9,-34.5 -14.2,-53.1 10.8,-18.5 34.5,-24.9 53.1,-14.2 z"
   id="path384" />

</g>

</g>

</g>

<g
   id="g402">

<g
   id="g394">

<path
   class="st11"
   d="m 51.9,329 c 18.6,-10.7 42.3,-4.3 53.1,14.2 10.7,18.6 4.3,42.3 -14.2,53.1 C 72.1,407 48.4,400.6 37.7,382 26.9,363.5 33.3,339.7 51.9,329 Z"
   id="path392" />

</g>

<g
   id="g400">

<g
   id="g398">

<path
   class="st11"
   d="m 421.3,115.7 c 18.6,-10.7 42.3,-4.3 53.1,14.2 10.7,18.6 4.3,42.3 -14.2,53.1 -18.6,10.7 -42.3,4.4 -53.1,-14.2 -10.8,-18.6 -4.4,-42.3 14.2,-53.1 z"
   id="path396" />

</g>

</g>

</g>

</g>

<g
   id="g442">

<g
   id="g416">

<g
   id="g408">

<path
   class="st12"
   d="m 294.8,42.7 c 0,21.4 -17.4,38.8 -38.8,38.8 -16.4,0 -30.3,-10.1 -36,-24.3 4.5,1.8 9.4,2.8 14.5,2.8 21.4,0 38.8,-17.4 38.8,-38.8 0,-5.1 -1,-10.1 -2.8,-14.5 14.2,5.7 24.3,19.7 24.3,36 z"
   id="path406" />

</g>

<g
   id="g414">

<g
   id="g412">

<path
   class="st12"
   d="m 294.8,469.3 c 0,21.4 -17.4,38.8 -38.8,38.8 -16.4,0 -30.3,-10.1 -36,-24.4 4.5,1.8 9.4,2.8 14.5,2.8 21.4,0 38.8,-17.4 38.8,-38.8 0,-5.1 -1,-10 -2.8,-14.5 14.3,5.8 24.3,19.7 24.3,36.1 z"
   id="path410" />

</g>

</g>

</g>

<g
   id="g428">

<g
   id="g420">

<path
   class="st13"
   d="M 104.9,168.8 C 94.2,187.4 70.4,193.7 51.8,183 44,178.5 38.3,171.7 35.2,163.9 c 17.7,7.1 38.3,0.3 48.1,-16.6 6.2,-10.8 6.7,-23.2 2.4,-33.9 1.7,0.7 3.3,1.4 4.9,2.4 18.7,10.7 25,34.4 14.3,53 z"
   id="path418" />

</g>

<g
   id="g426">

<g
   id="g424">

<path
   class="st13"
   d="m 474.3,382 c -10.7,18.6 -34.5,24.9 -53.1,14.2 -7.8,-4.5 -13.5,-11.4 -16.6,-19.1 17.6,7.1 38.3,0.4 48.1,-16.6 6.2,-10.7 6.7,-23.2 2.4,-33.9 1.7,0.7 3.3,1.5 4.9,2.4 18.7,10.7 25,34.5 14.3,53 z"
   id="path422" />

</g>

</g>

</g>

<g
   id="g440">

<g
   id="g432">

<path
   class="st14"
   d="m 90.7,396.3 c -18.6,10.7 -42.3,4.3 -53,-14.3 -0.9,-1.6 -1.7,-3.2 -2.4,-4.9 10.7,4.3 23.1,3.8 33.9,-2.4 17,-9.8 23.7,-30.5 16.6,-48.1 7.8,3.1 14.6,8.7 19.1,16.6 10.7,18.6 4.4,42.3 -14.2,53.1 z"
   id="path430" />

</g>

<g
   id="g438">

<g
   id="g436">

<path
   class="st14"
   d="m 460.1,183 c -18.6,10.8 -42.3,4.4 -53.1,-14.2 -0.9,-1.6 -1.7,-3.2 -2.4,-4.9 10.7,4.3 23.2,3.8 33.9,-2.4 16.9,-9.8 23.7,-30.5 16.6,-48.1 7.8,3.1 14.6,8.8 19.1,16.6 10.8,18.5 4.5,42.3 -14.1,53 z"
   id="path434" />

</g>

</g>

</g>

</g>

<path
   class="st15"
   d="m 462.1,325.6 c -15.7,-9 -34.6,-7.1 -48.1,3.7 l -39.6,-22.9 c 6.6,-15.5 10.3,-32.5 10.3,-50.4 0,-17.9 -3.7,-35 -10.3,-50.5 l 39.7,-22.9 c 13.4,10.7 32.4,12.7 48.1,3.7 20.5,-11.8 27.4,-37.9 15.6,-58.4 -11.8,-20.4 -37.9,-27.4 -58.4,-15.6 -15.6,9 -23.5,26.3 -20.9,43.5 l -39.7,22.9 C 338.3,151.4 307.1,132.6 271.6,128.3 V 82.5 C 287.5,76.3 298.8,60.8 298.8,42.7 298.7,19.2 279.5,0 256,0 c -23.5,0 -42.7,19.2 -42.7,42.7 0,18.1 11.3,33.5 27.2,39.8 v 45.8 c -35.6,4.3 -66.7,23.1 -87.3,50.4 l -39.7,-22.9 c 2.6,-16.9 -5.2,-34.4 -20.8,-43.4 -20.5,-11.8 -46.5,-4.8 -58.4,15.6 -11.8,20.4 -4.8,46.6 15.6,58.4 15.7,9.1 34.7,7 48.1,-3.7 l 39.6,22.9 c -6.6,15.5 -10.3,32.5 -10.3,50.4 0,17.9 3.7,34.9 10.3,50.4 L 98,329.3 c -13.3,-10.7 -32.4,-12.7 -48,-3.7 -20.4,11.8 -27.4,38 -15.6,58.4 11.7,20.3 37.9,27.4 58.4,15.6 15.6,-9 23.4,-26.5 20.8,-43.4 l 39.7,-22.9 c 20.5,27.3 51.7,46.1 87.2,50.4 v 45.9 c -15.9,6.2 -27.2,21.7 -27.2,39.8 0,23.6 19.2,42.7 42.7,42.7 23.5,0 42.7,-19.2 42.7,-42.7 0,-18.1 -11.3,-33.5 -27.2,-39.8 v -45.8 c 35.6,-4.3 66.7,-23.1 87.3,-50.4 l 39.7,22.9 c -2.6,16.9 5.2,34.4 20.8,43.4 20.4,11.8 46.5,4.8 58.4,-15.6 11.8,-20.5 4.8,-46.7 -15.6,-58.5 z M 423.2,119.1 c 16.8,-9.7 38.2,-3.8 47.7,12.8 9.7,16.7 3.9,38.1 -12.8,47.7 -16.7,9.6 -38.1,4 -47.7,-12.8 -9.6,-16.7 -4,-38 12.8,-47.7 z m -22.8,44.5 c 0.9,2.4 1.9,4.8 3.3,7.1 1.3,2.3 2.8,4.4 4.5,6.4 L 371,198.5 c -2.3,-4.7 -4.9,-9.1 -7.8,-13.4 z M 221,42.7 c 0,-19.3 15.7,-35 35,-35 19.3,0 35,15.7 35,35 0,19.3 -15.7,35 -35,35 -19.3,0 -35,-15.7 -35,-35 z m 35,42.8 c 2.7,0 5.2,-0.3 7.8,-0.7 v 42.9 c -2.6,-0.1 -5.2,-0.2 -7.8,-0.2 -2.6,0 -5.2,0.1 -7.8,0.2 v -43 c 2.5,0.5 5.1,0.8 7.8,0.8 z M 53.8,179.6 c -16.7,-9.7 -22.5,-31 -12.8,-47.7 9.6,-16.7 31,-22.5 47.7,-12.8 16.7,9.6 22.4,31.1 12.8,47.7 -9.6,16.8 -31,22.5 -47.7,12.8 z m 50,-2.5 c 1.7,-2 3.2,-4.1 4.5,-6.4 1.3,-2.3 2.4,-4.7 3.2,-7.1 l 37.2,21.4 c -2.8,4.3 -5.4,8.8 -7.8,13.4 z m -15,215.8 C 72,402.6 50.7,396.8 41.1,380.1 31.5,363.4 37.2,342 53.9,332.4 c 16.7,-9.6 38.1,-4 47.7,12.8 9.6,16.6 3.9,38.1 -12.8,47.7 z m 22.7,-44.5 c -0.9,-2.4 -1.9,-4.8 -3.2,-7.1 -1.3,-2.3 -2.9,-4.4 -4.5,-6.3 l 37.1,-21.5 c 2.3,4.7 4.9,9.1 7.8,13.4 z m 179.4,120.9 c 0,19.3 -15.7,35 -35,35 -19.3,0 -35,-15.7 -35,-35 0,-19.3 15.7,-35 35,-35 19.3,0 35,15.7 35,35 z M 256,426.5 c -2.7,0 -5.3,0.3 -7.8,0.7 v -42.9 c 2.6,0.2 5.2,0.2 7.8,0.2 2.6,0 5.2,-0.1 7.8,-0.2 v 42.9 c -2.6,-0.4 -5.2,-0.7 -7.8,-0.7 z m 74.8,-75.7 c -9.1,7.2 -19.3,13.2 -30.3,17.6 V 315 c 0,-2.2 -1.7,-3.9 -3.9,-3.9 -2.1,0 -3.9,1.7 -3.9,3.9 v 56.2 c -11.6,3.7 -24,5.7 -36.8,5.7 -12.8,0 -25.2,-2 -36.7,-5.7 V 315 c 0,-2.2 -1.7,-3.9 -3.9,-3.9 -2.1,0 -3.9,1.7 -3.9,3.9 v 53.4 c -11,-4.4 -21.2,-10.3 -30.3,-17.5 v -34 c 0,-25.6 20.8,-46.5 46.4,-46.5 h 7.3 c 6.4,5.4 14.7,8.7 23.8,8.7 9.1,0 17.4,-3.3 23.8,-8.7 h 2 c 25.6,0 46.5,20.9 46.5,46.5 v 33.9 z M 287.7,211.6 v 30.6 c 0,16 -13.1,29.1 -29.1,29.1 -16,0 -29.1,-13.1 -29.1,-29.1 v -30.6 z m -58.2,-7.8 v -17.2 c 0,-6.4 5.2,-11.6 11.6,-11.6 h 66.5 l -18.2,28.8 z m 109.1,140.3 v -27.3 c 0,-28.3 -21.8,-51.6 -49.4,-54 4,-5.9 6.3,-13 6.3,-20.6 V 208.8 L 318,173.1 c 0.8,-1.2 0.8,-2.7 0.1,-3.9 -0.7,-1.2 -2,-2 -3.4,-2 h -73.6 c -10.7,0 -19.4,8.7 -19.4,19.4 v 55.6 c 0,7.5 2.3,14.5 6.2,20.4 h -0.3 c -29.9,0 -54.1,24.4 -54.1,54.3 v 27.3 c -23.5,-22.1 -38.3,-53.4 -38.3,-88.1 0,-66.7 54.2,-120.9 120.9,-120.9 66.7,0 120.8,54.1 120.8,120.8 0,34.8 -14.8,66.1 -38.3,88.1 z m 24.7,-17.2 c 2.8,-4.3 5.4,-8.8 7.8,-13.4 l 37.2,21.4 c -1.7,2 -3.2,4.1 -4.5,6.3 -1.3,2.3 -2.4,4.7 -3.2,7.1 z M 471,380.1 c -9.7,16.7 -31,22.5 -47.7,12.8 -16.7,-9.7 -22.5,-31 -12.8,-47.7 9.7,-16.7 31,-22.5 47.7,-12.8 16.7,9.6 22.4,31 12.8,47.7 z"
   id="path444" />

</g></g></g><style
     type="text/css"
     id="style322">
	.st0{fill:#EDEDED;}
	.st1{fill:#FFFFFF;}
	.st2{fill:#BD90BE;}
	.st3{fill:#D3B5D3;}
	.st4{fill:none;stroke:#333333;stroke-width:2;stroke-linecap:round;stroke-linejoin:round;stroke-miterlimit:10;}
	.st5{fill:#FEE8B3;}
	.st6{fill:#FFF4D9;}
	.st7{fill:#516468;}
	.st8{fill:#7C8B8D;}
	.st9{fill:#FB8A8A;}
	.st10{fill:#FDDD8D;}
	.st11{fill:#7BDE9E;}
	.st12{fill:#F96363;}
	.st13{fill:#FDD267;}
	.st14{fill:#50D27E;}
	.st15{fill:#333333;}
</style></svg>
